{"title":"The Man Who WasnÃ‚Â´t There[Black White].SWESUB.DVDRip.XViD","uid":5502254,"size":741838888,"categoryP":"video","categoryS":"movies","magnet":"?xt=urn:btih:9eac0d3b823aaafe546759ce4939904279a9b235&amp;dn=The+Man+Who+Wasn%C3%82%C2%B4t+There%5BBlack+White%5D.SWESUB.DVDRip.XViD&amp;tr=udp%3A%2F%2Ftracker.openbittorrent.com%3A80&amp;tr=udp%3A%2F%2Fopen.demonii.com%3A1337&amp;tr=udp%3A%2F%2Ftracker.coppersurfer.tk%3A6969&amp;tr=udp%3A%2F%2Fexodus.desync.com%3A6969","seeders":2,"leechers":0,"uploader":"Zen_Bud","files":-1,"time":1271609191,"description":"General\nComplete name                    : The Man Who Wasn't There[Black White].avi\nFormat                           : AVI\nFormat/Info                      : Audio Video Interleave\nFile size                        : 707 MiB\nDuration                         : 1h 51mn\nOverall bit rate                 : 890 Kbps\n\nVideo\nID                               : 0\nFormat                           : MPEG-4 Visual\nCodec ID/Hint                    : XviD\nDuration                         : 1h 51mn\nBit rate                         : 749 Kbps\nWidth                            : 712 pixels\nHeight                           : 548 pixels\nDisplay aspect ratio             : 16:9\nResolution                       : 8 bits\nColorimetry                      : 4:2:0\nScan type                        : Progressive\nBits/(Pixel*Frame)               : 0.077\nStream size                      : 595 MiB (84%)\nWriting library                  : XviD 1.1.2 (UTC 2006-11-01)\n\nAudio\nID                               : 1\nFormat                           : MPEG Audio\nFormat version                   : Version 1\nFormat profile                   : Layer 3\nMode                             : Joint stereo\nCodec ID                         : 55\nCodec ID/Hint                    : MP3\nDuration                         : 1h 51mn\nBit rate mode                    : Constant\nBit rate                         : 128 Kbps\nChannel(s)                       : 2 channels\nSampling rate                    : 48.0 KHz\nStream size                      : 102 MiB (14%)\nWriting library                  : LAME3.98\n\n","torrent":{"xt":"urn:btih:9eac0d3b823aaafe546759ce4939904279a9b235","amp;dn":"The+Man+Who+Wasn%C3%82%C2%B4t+There%5BBlack+White%5D.SWESUB.DVDRip.XViD","amp;tr":["udp%3A%2F%2Ftracker.openbittorrent.com%3A80","udp%3A%2F%2Fopen.demonii.com%3A1337","udp%3A%2F%2Ftracker.coppersurfer.tk%3A6969","udp%3A%2F%2Fexodus.desync.com%3A6969"],"infoHash":"9eac0d3b823aaafe546759ce4939904279a9b235","infoHashBuffer":{"type":"Buffer","data":[158,172,13,59,130,58,170,254,84,103,89,206,73,57,144,66,121,169,178,53]},"announce":[],"urlList":[]}}